<mxfile host="app.diagrams.net" modified="2024-01-18T02:30:19.735Z" agent="10:18Mozilla/5.0 (Macintosh; Intel Mac OS X 10_15_7) AppleWebKit/537.36 (KHTML, like Gecko) HBOS/1.0.25 Chrome/91.0.4472.164 Electron/13.6.3 Safari/537.36" version="22.1.18" etag="7nBWSv02xnMQTDLPOOyC" type="github">
  <diagram name="第 1 页" id="wqrDkGBto8Atv_9_D2-T">
    <mxGraphModel>
      <root>
        <mxCell id="0" />
        <mxCell id="1" parent="0" />
      </root>
    </mxGraphModel>
  </diagram>
</mxfile>
